<svg xmlns="http://www.w3.org/2000/svg" width="1546" height="1574" viewBox="0 0 1546 1574"><path fill="#0078c9" d="m657 352.1-31.2 36.1c-2.5 2.4-4.9 7.2-4.9 12v515c0 4.8 2.4 7.2 4.9 12l31.2 36.1c2.4 2.5 7.3 4.9 12.1 4.9s9.6-2.4 12-4.9l31.3-36.1c2.4-2.4 4.8-7.2 4.8-12l-2.4-517.4c0-4.8-2.4-7.2-4.8-9.6l-31.3-36.1c-2.4-4.8-7.2-4.8-12-4.8-2.4 0-7.3 0-9.7 4.8M541.5 446c-2.4 0-7.2 2.4-7.2 4.8L503 486.9c-2.4 2.4-2.4 4.8-2.4 7.2v418.7c0 2.4 0 4.8 2.4 7.2l31.3 38.5c2.4 2.4 4.8 4.8 9.6 4.8 2.4 0 7.3-2.4 7.3-4.8L580 920c2.4-2.4 2.4-4.8 2.4-7.2V494.1c0-2.4 0-4.8-2.4-7.2l-31.3-36.1c-2.4-2.4-4.8-4.8-7.2-4.8M421.2 563.9c-2.4 0-4.8 0-7.2 2.4l-31.3 31.3c-2.4 2.4-2.4 2.4-2.4 4.8v204.5c0 2.4 0 4.8 2.4 4.8L414 843c2.4 2.4 4.8 2.4 7.2 2.4s4.8 0 7.2-2.4l28.9-31.3c2.4-2.4 2.4-4.8 2.4-4.8V602.4c0-2.4 0-4.8-2.4-4.8l-28.9-31.3c-2.4-2.4-4.8-2.4-7.2-2.4m522.2-216.6c-4.8 0-9.6 2.4-12 4.8l-31.3 36.1c-2.4 2.4-4.8 7.2-4.8 9.6v512.6c0 4.8 2.4 7.2 4.8 12l31.3 36.1c2.4 2.4 7.2 4.8 12 4.8s9.6-2.4 12-4.8l31.3-36.1c2.4-2.4 4.8-7.2 4.8-12V397.8c0-4.8-2.4-7.2-4.8-12l-31.3-33.7c-4.8-4.8-7.2-4.8-12-4.8m117.9 103.5-31.3 36.1c0 2.4-2.4 4.8-2.4 7.2v421.1c0 2.4 0 4.8 2.4 7.2l28.9 38.5c2.4 2.4 4.8 4.9 7.2 4.9s7.3-2.5 7.3-4.9l31.2-38.5c2.4-2.4 2.4-4.8 2.4-7.2V496.5c0-2.4 0-4.8-2.4-7.2l-31.2-36.1c2.4-4.8 0-7.2-2.5-7.2-4.8 0-7.2 2.4-9.6 4.8M1184 566.3l-31.2 31.3c-2.4 2.4-2.4 2.4-2.4 4.8v204.5c0 2.4 0 4.8 2.4 4.8l28.8 31.3c2.4 2.4 4.9 2.4 7.3 2.4s4.8 0 7.2-2.4l31.3-31.3c2.4-2.4 2.4-4.8 2.4-4.8V602.4c0-2.4 0-4.8-2.4-4.8l-28.9-31.3c-2.4-2.4-4.8-2.4-7.2-2.4-4.8 0-7.3 0-7.3 2.4m-206.9 688.2c144.4 12.1 312.8-69.8 387.4-146.8C1489.7 980.2 1545 828.6 1545 631.3 1545 251 1280.3.8 868.8.8 592.1.8 349 118.7 180.6 328 62.6 472.4.1 650.5.1 840.6c0 240.7 98.6 435.6 276.7 570.4 132.4 101 322.5 170.8 551.1 161.2 149.2-4.8 300.8-45.7 380.2-105.9 65-50.5 36.1-48.1 14.5-45.7-14.5 2.4-33.7 9.6-33.7 9.6-115.5 50.5-233.5 81.8-358.6 81.8-413.9 0-685.8-247.8-685.8-656.9 0-279.2 113.1-512.6 317.6-659.4C587.3 104.2 734 58.5 892.9 58.5c351.3 0 599.2 226.2 596.8 560.7-2.4 207-38.5 322.5-149.2 447.6-101.1 115.5-257.5 144.4-351.4 134.8-115.5-12-127.5-79.4-129.9-137.2V308.8c0-7.2-2.4-12.1-4.8-19.3l-26.5-40.9c-4.8-9.6-14.4-14.4-21.7-14.4q-14.4 0-21.6 14.4l-24.1 40.9c-2.4 4.8-4.8 12.1-4.8 16.9v765.2c-2.4 93.9 93.9 173.3 221.4 182.9"/></svg>