<svg xmlns="http://www.w3.org/2000/svg" width="260" height="358" viewBox="0 0 260 358"><path fill="#00f" fill-rule="evenodd" d="m216.67 9-3-.33V8l-3-.33V7l-4-.33V6l-5-.33V5H184l-.33 1H179l-.33 1H175l-.33 1H172l-.33 1H169l-.33 1H167l-.33 1H165l-.33 1H163l-.33 1H161l-1.33 2H158l-.33 1H157l-1.33 2H154l-.33 1H153l-.33 1H152l-.33 1H151l-.33 1H150l-.33 1H149l-.33 1H148l-.33 1H147l-.33 1H146l-.33 1H145l-.33 1H144l-.33 2H143l-.33 1H142l-.33 1H141l-1.33 4H139l-.33 1H138l-.33 2H137l-.33 2H136l-.33 2H135l-1.33 6H133l-.33 4H132l-.33 6H131l-.33 98-55-.33V121H41l-.33 36H5v34.67l36 .33v103.67l1 .33v6.67l1 .33v3.67l1 .33v3.67l1 .33v1.67l1 .33v2.67l1 .33v1.67l1 .33v1.67l1 .33v1.67l1 .33v1.67l2 1.33v1.67l1 .33v.67l1 .33v.67l2 1.33v1.67l1 .33v.67l1 .33v.67l1 .33v.67l1 .33v.67l1 .33v.67l1 .33v.67l2 .33v.67l1 .33v.67l1 .33v.67l1 .33v.67l1 .33v.67l4 1.33v.67l1 .33v.67l2 .33v.67l2 .33v.67l2 .33v.67l3 .33v.67l3 .33v.67l4 .33v.67l5 .33v.67h18.67l.33-1h4.67l.33-1h3.67l.33-1h2.67l.33-1h2.67l.33-1h1.67l.33-1h1.67l.33-1h1.67l1.33-2h1.67l.33-1h1.67l.33-1h.67l.33-1h.67l1.33-2h1.67l.33-1h.67l.33-1h.67l.33-1h.67l.33-1h.67l.33-1h.67l.33-1h.67l.33-1h.67l.33-2h.67l.33-1h.67l.33-1h.67l.33-1h.67l.33-2h.67l.33-1h.67l.33-2h.67l.33-2h.67l.33-2h.67l.33-2h.67l.33-2h.67l.33-3h.67l.33-3h.67l.33-5h.67l.33-7h.67l.33-104h35.67V157l-36-.33.33-96h.67l1.33-6h.67l.33-2h.67l.33-1h.67l.33-2h.67l.33-1h.67l.33-1h.67l.33-1h.67l1.33-2h1.67l1.33-2h1.67l.33-1h1.67l.33-1h2.67l.33-1 14 .33v.67l3 .33v.67l2 .33v.67l4 1.33v.67l1 .33v.67l1 .33v.67l1 .33v.67l1 .33v.67l1 .33v.67l2 1.33v1.67l1 .33v1.67l1 .33v1.67l1 .33v2.67l1 .33v59.67l1 .33v.67h33.67V57l-1-.33V52l-1-.33V49l-1-.33V45l-1-.33V43l-1-.33V41l-1-.33V39l-1-.33V37l-1-.33V35l-1-.33V33l-1-.33V32l-2-1.33V29l-1-.33V28l-1-.33V27l-1-.33V26l-2-1.33V23l-1-.33V22l-2-.33V21l-1-.33V20l-1-.33V19l-1-.33V18l-1-.33V17l-2-.33V16l-1-.33V15l-2-.33V14l-1-.33V13l-2-.33V12l-2-.33V11l-2-.33V10l-2-.33ZM76 191.67l55 .33-.33 103H130l-.33 5H129l-.33 2H128l-1.33 4H126l-.33 1H125l-.33 1H124l-.33 2H123l-.33 1H121l-.33 1H120l-1.33 2H117l-1.33 2H113l-.33 1H110l-.33 1-13-.33V317l-6-1.33V315l-1-.33V314l-2-.33V313l-1-.33V312l-1-.33V311l-2-.33V310l-1-.33V308l-1-.33V307l-2-1.33V304l-1-.33V302l-1-.33V299l-1-.33V295l-1-.33Z"/></svg>